<?xml version="1.0" standalone="yes"?>

<svg version="1.1" viewBox="0.0 0.0 769.0 746.0" fill="none" stroke="none" stroke-linecap="square" stroke-miterlimit="10" xmlns="http://www.w3.org/2000/svg" xmlns:xlink="http://www.w3.org/1999/xlink"><clipPath id="p.0"><path d="m0 0l769.0 0l0 746.0l-769.0 0l0 -746.0z" clip-rule="nonzero"></path></clipPath><g clip-path="url(#p.0)"><path fill="#000000" fill-opacity="0.0" d="m0 0l769.105 0l0 746.08923l-769.105 0z" fill-rule="nonzero"></path><path fill="#cc0000" d="m382.33203 27.490814l1.1102295 343.33334l347.77692 3.333313l-5.553833 -58.88974l-10.0 -46.666687l-33.333313 -78.889755l-50.0 -60.0l-52.223083 -42.220474l-58.88977 -34.446194l-34.443573 -12.220474l-65.55646 -14.446194z" fill-rule="nonzero"></path><path stroke="#000000" stroke-width="2.0" stroke-linejoin="round" stroke-linecap="butt" d="m382.33203 27.490814l1.1102295 343.33334l347.77692 3.333313l-5.553833 -58.88974l-10.0 -46.666687l-33.333313 -78.889755l-50.0 -60.0l-52.223083 -42.220474l-58.88977 -34.446194l-34.443573 -12.220474l-65.55646 -14.446194z" fill-rule="nonzero"></path><path fill="#6aa84f" d="m384.5525 26.377953l-1.1102295 344.4462l-342.22308 1.1102295l6.666664 -88.88977l30.0 -72.220474l28.889763 -44.446182l68.88977 -73.33334l106.66667 -54.443565l65.5538 -11.110237z" fill-rule="nonzero"></path><path stroke="#000000" stroke-width="2.0" stroke-linejoin="round" stroke-linecap="butt" d="m384.5525 26.377953l-1.1102295 344.4462l-342.22308 1.1102295l6.666664 -88.88977l30.0 -72.220474l28.889763 -44.446182l68.88977 -73.33334l106.66667 -54.443565l65.5538 -11.110237z" fill-rule="nonzero"></path><path fill="#f1c232" d="m38.998688 371.9344l343.33334 3.3333435l2.220459 338.88974l-50.0 3.333313l-114.44357 -41.112854l-77.7769 -55.553772l-55.556427 -67.77954l-34.44357 -78.887146l-11.112858 -65.55643z" fill-rule="nonzero"></path><path stroke="#000000" stroke-width="2.0" stroke-linejoin="round" stroke-linecap="butt" d="m38.998688 371.9344l343.33334 3.3333435l2.220459 338.88974l-50.0 3.333313l-114.44357 -41.112854l-77.7769 -55.553772l-55.556427 -67.77954l-34.44357 -78.887146l-11.112858 -65.55643z" fill-rule="nonzero"></path><path fill="#3c78d8" d="m380.10892 377.4908l351.11026 -5.556427l-5.553833 51.11023l-27.779541 103.33331l-75.55377 97.77954l-81.112854 57.776917l-77.77692 28.88977l-64.44357 8.887146l-11.112854 -1.1102295z" fill-rule="nonzero"></path><path stroke="#000000" stroke-width="2.0" stroke-linejoin="round" stroke-linecap="butt" d="m380.10892 377.4908l351.11026 -5.556427l-5.553833 51.11023l-27.779541 103.33331l-75.55377 97.77954l-81.112854 57.776917l-77.77692 28.88977l-64.44357 8.887146l-11.112854 -1.1102295z" fill-rule="nonzero"></path><path fill="#000000" fill-opacity="0.0" d="m37.885826 373.02625l0 0c0 -191.1514 154.95883 -346.11023 346.11023 -346.11023l0 0c91.79413 0 179.82864 36.46508 244.73691 101.373344c64.908264 64.908264 101.37335 152.94276 101.37335 244.7369l0 0c0 191.15143 -154.95886 346.11023 -346.11026 346.11023l0 0c-191.15141 0 -346.11023 -154.9588 -346.11023 -346.11023z" fill-rule="nonzero"></path><path stroke="#000000" stroke-width="16.0" stroke-linejoin="round" stroke-linecap="butt" d="m37.885826 373.02625l0 0c0 -191.1514 154.95883 -346.11023 346.11023 -346.11023l0 0c91.79413 0 179.82864 36.46508 244.73691 101.373344c64.908264 64.908264 101.37335 152.94276 101.37335 244.7369l0 0c0 191.15143 -154.95886 346.11023 -346.11026 346.11023l0 0c-191.15141 0 -346.11023 -154.9588 -346.11023 -346.11023z" fill-rule="nonzero"></path><path fill="#000000" fill-opacity="0.0" d="m37.885826 373.02625l692.2205 0" fill-rule="nonzero"></path><path stroke="#000000" stroke-width="16.0" stroke-linejoin="round" stroke-linecap="butt" d="m37.885826 373.02625l692.2205 0" fill-rule="nonzero"></path><path fill="#000000" fill-opacity="0.0" d="m383.99606 26.91601l0 692.22046" fill-rule="nonzero"></path><path stroke="#000000" stroke-width="16.0" stroke-linejoin="round" stroke-linecap="butt" d="m383.99606 26.91601l0 692.22046" fill-rule="nonzero"></path><path fill="#000000" d="m275.09842 373.02625l0 0c0 -60.142517 48.755127 -108.897644 108.897644 -108.897644l0 0c28.88144 0 56.579987 11.473114 77.00226 31.895386c20.422272 20.422272 31.895386 48.12082 31.895386 77.00226l0 0c0 60.142517 -48.755127 108.897644 -108.897644 108.897644l0 0c-60.142517 0 -108.897644 -48.755127 -108.897644 -108.897644z" fill-rule="nonzero"></path><path stroke="#000000" stroke-width="2.0" stroke-linejoin="round" stroke-linecap="butt" d="m275.09842 373.02625l0 0c0 -60.142517 48.755127 -108.897644 108.897644 -108.897644l0 0c28.88144 0 56.579987 11.473114 77.00226 31.895386c20.422272 20.422272 31.895386 48.12082 31.895386 77.00226l0 0c0 60.142517 -48.755127 108.897644 -108.897644 108.897644l0 0c-60.142517 0 -108.897644 -48.755127 -108.897644 -108.897644z" fill-rule="nonzero"></path></g></svg>

